<?xml version="1.0" encoding="utf-8"?>
<!-- Generator: Adobe Illustrator 27.5.0, SVG Export Plug-In . SVG Version: 6.00 Build 0)  -->
<svg version="1.1" xmlns="http://www.w3.org/2000/svg" xmlns:xlink="http://www.w3.org/1999/xlink" x="0px" y="0px"
	 viewBox="0 0 1122 1122" style="enable-background:new 0 0 1122 1122;" xml:space="preserve">
<g id="Bg">
	<rect style="fill:#FFFFFF;" width="1122" height="1122"/>
</g>
<g id="Object">
	<g>
		<path style="fill:#212124;" d="M613.03,670.515L613.03,670.515c-0.393,0.467-0.786,0.934-1.179,1.4h0
			c-1.161,0.234-2.202,0.706-3.054,1.55c-10.454,3.86-20.534,8.636-30.951,13.126c-0.441-6.621,0.305-12.803-0.998-18.872l0-0.002
			c0.16-7.825-0.728-15.586-1.827-23.295c-1.637-11.487-2.773-23.089-6.514-34.182c-0.332-2.84-1.231-5.448-4.455-5.872
			c-2.98-0.393-4.757,1.351-5.427,4.227c-4.237,9.03-5.418,18.603-5.057,28.451l0,0.003v-0.001
			c-0.288,1.683-0.576,3.364-0.863,5.045c-2.425,3.388-4.85,6.776-7.275,10.164c-2.342,1.524-4.469,3.453-7.367,3.938
			c-4.443-4.388-4.862-10.04-4.375-15.676c1.337-15.479,4.56-30.635,9.367-45.383c2.795-8.574,7.857-15.925,14.752-21.889
			c2.627-0.396,5.059,0.036,7.202,1.696c0.979,2.07,2.525,3.886,2.788,6.279c0.078,0.711,0.377,1.404,1.141,1.507
			c1.046,0.141,1.415-0.793,1.618-1.519c1.15-4.109,1.025-8.034-1.986-11.437c-5.05-7.578-13.025-9.775-20.879-5.753h0
			c-1.981,0.285-3.504,1.519-5.089,2.562c-8.844,5.817-15.195,13.702-19.556,23.326c-4.231,9.337-6.485,19.197-8.253,29.211
			c-0.225,0.331-0.451,0.661-0.676,0.992c-1.226,1.849-2.963,3.411-3.251,5.787h0c-0.332,1.196-2.302,1.597-1.599,3.295
			c-0.546,1.54-3.112,1.869-2.47,4.121c-0.33,0.481-0.66,0.962-0.99,1.443c-2.772,1.784-3.654,4.845-5.089,7.532l0,0
			c-1.344,1.478-2.496,3.083-3.265,4.941c-1.49,1.533-3.274,2.836-3.928,5.024c-0.193,0.145-0.228,0.322-0.104,0.529
			c-1.693,0.184-2.53,1.462-3.422,2.673h0c-1.443,0.362-1.283-0.72-1.399-1.554c-0.117,0.182-0.235,0.365-0.352,0.547
			c0.063-0.193,0.168-0.377,0.352-0.547c0.4-1.016,0.817-2.025,1.199-3.047c7.093-18.962,12.725-38.282,14.099-58.614
			c0.54-8.004,0.109-15.89-3.699-23.218c-3.476-8.376-10.593-10.371-17.38-4.872c-3.406,1.148-5.337,3.999-7.407,6.609
			c-4.156,5.24-6.952,11.288-9.89,17.241c-0.584,0.294-1.168,0.587-1.752,0.881c-1.637-3.728-2.043-8.109-5.714-10.756
			c-3.226-3.659-6.114-3.475-9.159,0.585l0,0c-2.526,2.97-4.268,6.386-5.676,9.991c-2.137,3.374-3.919,6.913-5.033,10.764
			c0,0.001-0.001,0.001-0.001,0.001l0-0.001l0,0.002c0.006-0.005,0.01-0.01,0.016-0.015c-1.373,1.693-2.197,3.622-2.481,5.783
			c-1.059,1.174-1.466,2.607-1.62,4.14v0c-0.943,1.529-1.681,3.124-1.583,4.983l0,0c-0.006,0.495-0.013,0.99-0.019,1.485
			c-2.316,2.313-2.506,5.466-3.309,8.377c-1.16,2.059-2.089,4.209-2.559,6.539c-1.321,2.77-2.642,5.54-3.962,8.31
			c-0.922,0.898-1.547,1.96-1.784,3.235c-2.333,1.633-2.465,5.753-6.356,5.625l0,0c1.127-12.821,2.254-25.643,3.381-38.464
			c-0.194,0.357-0.358,0.72-0.504,1.087c0.134-0.369,0.292-0.733,0.504-1.087c1.378-8.923,2.801-17.84,4.113-26.773
			c0.538-3.66,1.018-7.361,0.298-11.053c-0.38-1.948-1.227-3.685-3.398-4.238c-2.105-0.536-3.793,0.299-5.107,1.868
			c-0.963,1.151-1.829,2.4-2.613,3.682c-4.599,7.519-8.156,15.502-10.88,23.892c-4.623,14.237-6.15,28.916-6.57,43.771
			c-1.684,3.282-3.696,6.408-4.742,9.992c0,0,0,0,0-0.001c0,0.001,0,0.001,0,0.001c-0.106,0.219-0.159,0.45-0.161,0.694
			c-1.818,0.841-2.553,2.572-3.437,4.182h0c-1.11,1.079-2.221,2.16-3.331,3.239c-1.545,0.301-2.571,2.034-4.643,1.558
			c0-1.28,0-2.593,0-3.906c2.263-9.315,4.646-18.603,6.757-27.954c2.319-10.272,5.104-20.471,5.629-31.073
			c1.7-10.3,1.9-20.432-3.344-29.956c-0.553-2.127-1.882-3.52-3.967-4.198c-2.007-1.375-3.994-1.062-5.972,0.071
			c-5.899,3.09-7.302,9.001-9.172,14.619c-2.12,4.27-4.044,8.61-4.845,13.358c-1.078,1.448-1.406,3.178-1.835,4.871h0
			c-2.475,4.986-3.822,10.384-5.682,15.594c-1.708-2.282,0.131-4.929-0.748-7.296c0.225-2.867,0.5-5.732,0.667-8.602
			c0.566-9.724,1.282-19.476-3.832-28.438c-2.699-5.559-6.02-6.408-10.909-2.789l0,0c-2.099,1.181-3.483,3.092-4.669,5.053
			c-5.236,8.654-9.028,17.994-12.726,27.372l-0.001,0.001c-1.282,0.652-1.201-0.243-1.269-1.074
			c-0.197-2.423,0.261-4.928-0.888-7.233c-0.724-6.655-1.739-13.222-5.742-18.879c-3.176-4.747-6.386-5.021-10.098-0.862
			c-4.92,4.881-9.225,10.213-12.138,16.565c-0.141,0.211-0.202,0.444-0.183,0.697c-2.202,1.364-3.154,3.656-4.309,5.798
			c-1.296,1.67-2.591,3.341-3.887,5.011c-1.508,0.483-1.763,2.682-3.779,2.818c-0.336-3.27-0.202-6.52-1.997-9.32
			c-0.756-1.246-1.622-2.361-3.164-2.68c-1.39-1.278-3.042-1.028-4.625-0.652c-6.042,1.435-10.184,7.055-10.478,14.1
			c-0.316,7.577,2.724,12.502,9.12,14.775c1.182,1.115,2.712,0.646,4.084,0.899l0.212-0.178c0.005,0.012,0.008,0.025,0.013,0.037
			c-0.075,0.047-0.15,0.094-0.226,0.141c-0.838,5.68-3.519,10.789-5.031,16.26c-2.189,4.39-4.377,8.781-6.566,13.171
			c-3.782,5.487-8.35,10.274-13.187,14.822c-2.122,0.689-3.591,3.149-6.275,2.311c-1.125-6.536-1.077-13.073,0.106-19.589
			c2.396-13.194,4.587-26.432,7.33-39.554c2.293-10.97,5.207-21.816,10.686-31.754c2.401-1.573,4.817-1.567,7.246-0.067
			c2.403,2.604,4.125,5.679,5.991,8.655c0.763,1.218,1.29,3.139,3.213,2.279c1.702-0.761,1.076-2.494,0.892-3.985
			c-0.557-4.524-3.025-8.008-5.928-11.28c-4.361-4.853-9.6-6.407-15.836-4.215c0,0,0,0,0,0c-5.202,1.735-8.823,5.338-11.66,9.868
			c-16.191,20.991-22.663,44.75-19.732,70.989c0.821,7.347,2.959,14.492,7.435,20.658c0.508,1.408,1.249,2.628,2.669,3.298h0
			l-0.047,0.001c-0.001,0-0.001,0-0.001,0h-0.001l0,0l0.001,0.001c5.211,4.902,10.104,4.689,15.863-0.691
			c6.116-4.563,10.738-10.436,14.77-16.831c0.748-1.186,1.32-2.398,1.011-3.852c2.485-0.751,2.426-3.099,3.125-4.972l0,0
			c4.206-8.706,7.266-17.79,9.002-27.309c1.425-1.548,3.369-2.621,4.264-4.655c2.52-2.316,4.319-5.137,5.76-8.21l0,0
			c1.251-1.127,2.02-2.543,2.488-4.139l0,0c1.22-1.159,1.977-2.585,2.423-4.191h0c2.128-2.737,3.631-5.817,4.941-9.003
			c1.637-2.521,3.274-5.042,4.911-7.563c0.533,0.039,1.005-0.683,1.58-0.128c-4.005,18.073-8.827,35.986-11.17,54.388
			c-1.198,9.404-1.971,18.896,1.85,28.002c1.291,3.076,3.37,5.494,7.007,5.489c3.754-0.004,5.255-2.695,6.593-5.799
			c6.309-14.631,9.63-29.986,11.45-45.729c1.089-3.014,2.177-6.027,3.266-9.041c0.595-1.208,1.23-2.399,1.78-3.627
			c3.783-8.449,6.828-17.238,11.415-25.309c1.102-1.939,1.613-4.831,4.802-4.853c-0.174,1.771-0.229,3.563-0.542,5.309
			c-2.229,12.427-6.27,24.413-8.962,36.729c-2.4,10.978-5.178,21.908-4.529,33.296c0.292,5.124,1.137,10.117,4.472,14.275
			c1.824,2.275,4.229,3.534,7.219,3.051c3.044-0.493,4.748-2.562,5.632-5.365c0.411-1.303,0.69-2.651,0.979-3.989
			c1.618-7.497,3.222-14.997,4.83-22.497c2.23-5.017,3.695-10.278,4.995-15.593c2.802-5.688,2.903-12.261,5.863-17.898
			c0,0,0.001-0.002,0.001-0.003c0.952-1.307,1.646-2.7,1.495-4.382c0,0,0,0,0,0c1.682-4.374,3.364-8.748,5.045-13.122h0
			c0.246-0.606,0.492-1.213,0.738-1.819h0c1.415-1.301,2-3.029,2.471-4.815c1.435-1.879,2.87-3.757,4.305-5.636
			c0.441,0.039,0.883,0.079,1.324,0.119c-0.065,0.235-0.002,0.428,0.189,0.579c-0.039,0.767-0.079,1.534-0.118,2.301
			c-0.119,0.222-0.192,0.452-0.243,0.685c-0.496,1.428-0.679,2.906-0.562,4.43c-2.103,6.204-4.151,12.426-6.32,18.607
			c-5.946,16.945-9.2,34.283-7.761,52.316c0.314,3.939,0.697,7.878,2.473,11.51c0.647,3.338,2.058,6.224,4.893,8.267
			c3.364,3.158,6.75,2.572,10.148,0.061c3.425-1.945,6.422-4.286,7.647-8.266c0.169-0.313,0.338-0.627,0.507-0.941
			c0.281-0.279,0.563-0.559,0.844-0.838c1.408-0.664,1.85-1.799,1.602-3.273c0.448-0.717,1.298-1.269,0.952-2.314
			c1.104-0.103,1.612-0.876,1.939-1.794c0.702-1.969,1.395-0.759,2.099-0.016c0.626,2.4,1.26,4.796,3.009,6.691
			c4.47,7.767,12.297,9.482,19.296,4.139c2.831-2.16,5.285-4.701,6.628-8.112h0c1.385-1.367,2.119-3.064,2.496-4.94l0,0v0
			c1.351-2.031,2.068-4.291,2.42-6.683l0,0c1.344-2.563,2.103-5.306,2.504-8.159l0-0.002c1.011-1.82,1.521-3.777,1.605-5.852l0,0
			c1.038-2.08,1.5-4.305,1.652-6.606l0,0c1.3-3.159,1.95-6.483,2.483-9.836h0c2.471-5.819,4.941-11.639,7.412-17.458l0-0.001
			c0.198-0.022,0.391-0.069,0.578-0.138c2.315,2.5-0.954,5.192,0.266,7.731l0,0l0,0c-2.923,14.788-5.976,29.551-8.719,44.371
			c-1.646,8.893-3.163,17.872-1.389,26.951c0.779,3.99,3.22,6.697,7.328,7.381c4.134,0.688,7.16-1.244,9.297-4.685
			c0.576-0.927,1.1-1.914,1.467-2.938c6.427-17.925,10.409-36.337,10.961-55.426c0.963-3.564,0.74-7.217,0.809-10.848
			c0.77-0.944,0.779-2.081,0.811-3.212c3.264-8.816,6.657-17.574,11.644-25.607c0.972-1.081,1.865-2.248,2.933-3.223
			c1.909-1.746,3.538-4.155,6.733-3.354c0.358,4.149-0.254,8.193-1.403,12.163c-2.662,9.195-5.306,18.395-8.045,27.567
			c-3.662,12.259-5.819,24.768-6.138,37.554c-0.122,4.901,0.043,9.867,3.134,14.114c3.18,5.467,7.131,6.537,12.546,3.398
			c2.318-1.002,4.552-2.089,5.043-4.938c0.002,0.011,0.002,0.021,0.005,0.031l0,0l0,0h0c3.386-1.401,4.695-4.629,6.511-7.41v0
			c1.913-1.862,3.198-4.117,4.12-6.598l0,0c1.866-2.175,3.083-4.716,4.143-7.347l0-0.001c1.53-2.06,3.15-4.079,3.165-6.84
			c-0.076,0.077-0.152,0.154-0.228,0.231c0.067-0.086,0.139-0.167,0.228-0.231c0.274-0.55,0.549-1.101,0.823-1.651
			c0.423-0.678,1.291-1.143,1.021-2.15l0,0c0.264,0.03,0.481-0.057,0.652-0.26l0,0c1.203,1.294,0.554,2.874,0.649,4.332
			c0.193,2.981-0.372,6.035,0.887,8.909c1.569,9.94,4.788,18.954,13.843,24.697c10.902,6.79,17.252-0.654,24.117-8.516
			c-0.189,15.75,0.196,30.585-0.826,45.405c-6.465,5.551-13.267,10.726-19.015,17.075c-4.08,3.173-7.817,6.688-10.857,10.898h0
			c-6.162,5.963-10.346,13.372-14.84,20.53c-3.476,5.538-7.057,11.058-8.965,17.419c-1.054,1.471-1.577,3.124-1.695,4.917h0h0
			c-1.67,4.635-2.73,9.333-1.494,14.271l0.001,0.004c0.078,4.312,1.251,8.238,4.087,11.576c0.57,1.789,1.972,2.937,3.292,4.098
			c9.382,8.253,26.57,8.177,37.386-0.127c11.079-6.71,17.604-16.963,22.042-28.725c6.466-17.137,9.757-35.05,12.341-53.09
			c1.395-9.741,2.271-19.557,3.381-29.339c10.74-4.521,21.483-9.036,32.219-13.566c2.659-1.123,5.302-2.29,7.043-4.775
			c0.34,0.027,0.681,0.054,1.021,0.081c0-1.099,0-2.197,0-3.295C616.268,669.721,614.586,667.908,613.03,670.515z M293.472,588.932
			c0.146-0.074,0.249,0.069,0.335,0.277C293.688,589.085,293.578,588.997,293.472,588.932z M269.792,600.799
			c0.156-3.822,1.607-5.089,5.23-4.453c0.406-0.051,0.702,0.107,0.962,0.343c-0.375,0.146-0.843,0.235-1.436,0.246
			c-0.713,2.846-0.741,5.695,0.028,8.543c0.138,0.266,0.294,0.456,0.464,0.589c-1.791-0.293-3.564-0.701-5.378-0.844
			c-0.01-0.012-0.018-0.025-0.027-0.037C270.734,603.82,269.732,602.257,269.792,600.799z M303.089,575.767
			c0.046-0.039,0.082-0.086,0.13-0.124c0.002,0.034,0.003,0.068,0.005,0.102C303.177,575.751,303.133,575.759,303.089,575.767z
			 M431.719,630.014c0.002,0.043,0.004,0.086,0.006,0.129c-0.052-0.003-0.109-0.01-0.157-0.011
			C431.617,630.092,431.662,630.05,431.719,630.014z M433.401,621.778L433.401,621.778c-0.001-0.009-0.001-0.017-0.001-0.026
			c0.005,0.005,0.012,0.009,0.017,0.014C433.411,621.769,433.407,621.774,433.401,621.778L433.401,621.778z M432.114,619.969
			c-0.115,0.04-0.238,0.088-0.374,0.15v0v0c0.011-0.064,0.023-0.127,0.034-0.19C431.9,619.929,432.016,619.939,432.114,619.969z
			 M500.111,645.659c-0.001-0.013,0.003-0.024,0.002-0.038c0.019,0.004,0.037,0.01,0.056,0.013
			C500.149,645.643,500.13,645.65,500.111,645.659L500.111,645.659L500.111,645.659z M501.742,646.258
			c0.025,0.045,0.045,0.098,0.065,0.151c-0.019,0.02-0.037,0.039-0.056,0.058C501.753,646.386,501.744,646.329,501.742,646.258z
			 M476.225,576.461l-0.009-0.002c-0.023,0.078-0.055,0.152-0.079,0.229c-0.107-0.031-0.219-0.061-0.321-0.098
			c0.139-0.052,0.276-0.102,0.4-0.132l0.013-0.002C476.229,576.456,476.226,576.459,476.225,576.461L476.225,576.461z
			 M476.215,572.336L476.215,572.336c0-0.001,0-0.001,0.001-0.002L476.215,572.336z M495.993,782.407L495.993,782.407
			c0.006,0.038,0.008,0.077,0.013,0.115c-0.02-0.019-0.042-0.038-0.063-0.056C495.961,782.446,495.975,782.426,495.993,782.407
			L495.993,782.407z M500.94,775.819c0-0.013,0-0.024,0-0.038c0.008,0.006,0.015,0.013,0.023,0.019
			C500.955,775.807,500.948,775.813,500.94,775.819z M533.114,720.593c-0.014,0.013-0.029,0.025-0.043,0.038
			c-0.002-0.015-0.003-0.029-0.005-0.044C533.081,720.589,533.098,720.591,533.114,720.593z M549.303,723.232
			c-0.802,12.022-2.085,23.994-4.313,35.835c-2.709,14.405-7.884,27.413-21.322,35.406c-1.454,0.963-3.031,1.637-4.653,2.048
			c-1.936,0.335-3.617,0.478-5.102,0.41c-1.515-0.132-3.003-0.488-4.41-1.061c-2.559-1.297-4.543-3.8-6.721-7.777
			c-0.311-1.348-0.621-2.695-0.931-4.044c0.283-3.726,0.566-7.451,0.848-11.177c0.925-1.579,1.392-3.305,1.62-5.105l0,0l0,0
			c6.512-13.993,14.77-26.868,24.746-38.642c1.073-0.662,2.143-1.326,2.347-2.734h0l0,0c0.338-0.484,0.675-0.968,1.013-1.452h0
			l0.027,0.023l0,0c1.937-0.021,2.669-1.743,3.835-2.798c4.798-4.338,9.257-9.07,14.904-13.336c0,0.32,0,0.627,0,0.931
			c-0.468,2.168-0.036,4.448-0.775,6.582C550.056,718.643,549.458,720.903,549.303,723.232z M577.185,686.12
			c-0.007-0.032-0.012-0.064-0.018-0.097C577.173,686.055,577.18,686.087,577.185,686.12z"/>
		<path style="fill:#212124;" d="M424.598,550.216h0.001c3.109-1.806,3.807-4.353,2.33-7.57c-2.032-3.53-4.888-4.672-7.973-3.188
			c-2.952,1.42-4.223,4.965-2.87,8.008C417.558,550.775,420.464,551.714,424.598,550.216z"/>
		<path style="fill:#212124;" d="M225.269,487.835c1.486,0.039,1.981-1.216,2.292-2.461c0.936-3.749,1.125-7.5,0.001-11.25
			c0.133-0.232,0.106-0.444-0.081-0.635c0.134-1.766,0.16-3.515-0.763-5.124c-0.001-0.001-0.001-0.001-0.001-0.001
			c-0.121-2.573-0.532-5.081-1.653-7.432l-0.001-0.002c-0.752-5.33-2.604-10.326-4.812-15.182
			c-2.81-6.179-6.469-11.722-12.488-15.309c-9.648-7.698-20.256-11.15-32.503-7.342c-2.45,0.195-4.658,1.032-6.624,2.507
			c0,0,0,0,0,0c-6.104,2.321-10.361,6.99-14.701,11.557c-17.988,18.931-30.381,41.016-38.343,65.88
			c-13.921,43.473-19.396,87.39-9.347,132.535c4.804,21.586,12.944,41.313,29.335,56.839c3.069,2.907,6.039,5.977,10.014,7.725l0,0
			c14.06,10.238,34.301,5.643,43.215-9.811c5.417-7.113,9.772-14.834,13.214-23.078c1.803-2.525,2.072-5.474,2.262-8.424
			c0.097-1.497-0.573-2.67-2.07-3.095c-1.361-0.386-2.363,0.345-3.059,1.446c-0.639,1.011-1.469,1.956-1.473,3.261
			c-3.885,5.753-7.77,11.506-11.656,17.26c-3.881,4.117-7.699,8.302-12.416,11.518c-11.433,3.972-16.149,2.796-24.343-6.312
			c-10.64-11.827-16.068-25.855-18.195-41.535c-5.504-40.575-3.107-80.729,5.082-120.732c6.109-29.846,16.103-57.836,36.213-81.392
			c0,0,0,0,0,0c3.232-2.554,6.798-4.505,10.664-5.916c6.945-1.103,13.197,0.707,19.152,4.257c5.524,3.293,8.833,8.372,11.853,13.758
			c1.669,4.661,3.339,9.321,5.008,13.981c0.456,3.386,1.543,6.602,2.64,9.815c0.552,3.35,1.145,6.693,1.635,10.051
			C223.509,486.487,223.707,487.793,225.269,487.835z M224.937,463.61c-0.077-0.051-0.141-0.107-0.204-0.164
			c0.067-0.005,0.14-0.016,0.213-0.026C224.943,463.483,224.94,463.547,224.937,463.61z"/>
	</g>
	<g>
		<path style="fill:#212124;" d="M780.738,448.087l-0.001-0.001c-2.61-5.203-6.905-8.245-12.435-9.708
			c-2.249-1.524-4.993-1.513-7.446-2.405c-4.402-1.405-8.796-1.468-13.179,0.084c-0.337,0.229-0.673,0.458-1.01,0.687
			c-1.837,0.049-3.536,0.52-5.025,1.635l-0.001,0.001c-2.462,0.557-4.677,1.601-6.559,3.308l0,0
			c-2.612,1.112-4.831,2.759-6.682,4.907c-2.918,1.661-4.981,4.249-7.137,6.707c-8.285,9.445-12.901,20.688-15.1,32.853
			c-3.182,17.6-2.093,34.901,5.151,51.521c0,0.001,0.001,0.002,0.001,0.002c1.726,6.12,5.062,11.49,7.942,17.072
			c8.609,16.684,18.386,32.752,26.397,49.746c5.961,12.645,8.961,25.936,6.857,39.944c-2.583,17.193-8.137,32.769-24.686,41.774
			c-10.08,4.227-17.256-0.152-23.522-7.732c-5.192-6.28-8.781-13.404-11.775-20.893c0.035-1.781-1.118-3.047-1.993-4.403
			c-0.856-1.325-2.066-2.335-3.778-1.836c-1.806,0.527-2.043,2.095-1.865,3.665c0.198,1.744-0.083,3.587,0.913,5.194l0,0.001
			c0.791,10.344,5.633,19.108,10.966,27.625c12.178,19.45,32.591,16.743,45.478,7.789l0.001-0.001
			c6.012-3.122,10.398-8.076,14.139-13.468c22.271-32.101,26.846-66.051,9.455-101.752c-8.349-17.138-18.979-33-29.436-48.92
			c-0.283-0.14-0.507-0.34-0.698-0.582c0.223,0.2,0.454,0.394,0.698,0.582c-2.128-4.596-4.67-9.048-6.313-13.811
			c-8.586-24.876-9.497-48.525,11.904-68.218c2.462-1.406,4.924-2.812,7.386-4.218c1.183,0.016,2.243-0.366,3.228-0.992
			c5.53-0.919,10.994-0.604,16.398,0.865c3.243,1.599,5.747,4.101,8.182,6.688c0.184,0.542,0.368,1.083,0.552,1.625l0.001,0.001
			c0.635,1.352,1.271,2.703,1.906,4.055l0,0c2.914,9.44,2.808,19.065,1.766,28.748c-1.017,1.545-0.895,3.264-0.76,4.985
			c-0.111,0.233-0.146,0.477-0.104,0.732c-0.948,1.742-1.722,3.779,0.433,4.871c1.499,0.759,2.768-0.478,2.998-2.281h0
			c3.626-9.319,3.838-19.028,2.727-28.737C785.999,459.563,784.521,453.384,780.738,448.087z M742.76,438.582l-0.009,0.005
			c0.001-0.002,0.001-0.004,0.001-0.004L742.76,438.582z"/>
		<path style="fill:#212124;" d="M1010.781,647.871c-0.555-1.333-1.83-1.437-2.931-0.271l0,0
			c-4.331,3.863-8.268,8.105-12.029,12.515c-0.313,0.54-0.625,1.079-0.938,1.619c-1.08,1.07-2.782,1.388-3.499,2.897
			c-2.029,0.292-3.545,1.549-5.108,2.718c-1.559,0.024-2.852,1.602-4.556,0.777c0.089-2.915,0.995-5.645,1.947-8.353
			c3.039-8.638,6.109-17.264,9.179-25.891c3.219-9.045,6.016-18.235,6.48-27.868c0.408-8.462,0.452-17.014-5.135-24.284
			c-3.103-4.567-6.118-5.606-11.747-4.049c-9.841,1.775-15.733,8.461-20.534,16.505c-0.424,2.338-2.206,3.906-3.471,5.702
			c-4.364,6.197-7.76,13.065-12.912,18.713c0.15-0.229,0.103-0.406-0.14-0.532c1.034-7.329,1.627-14.684,0.898-22.076
			c-0.346-3.501-1.677-6.57-5.621-7.063c-3.971-0.496-5.908,2.238-7.138,5.515c-0.622,1.656-1.023,3.396-1.488,5.108
			c-1.074,3.95-2.126,7.906-3.186,11.859c-3.05,4.125-6.099,8.25-9.148,12.375c-1.445,1.069-2.89,2.138-4.334,3.207l-0.002,0.001
			c-0.186,0.179-0.373,0.357-0.56,0.536l-0.001,0.001c-1.571,0.392-3.141,0.783-4.712,1.174c-0.463-3.736,0.37-7.593-1.276-11.229
			c-2.42-5.346-7.518-6.549-12.163-2.76c-3.485,3.199-4.61,7.061-3.261,11.618c-0.095,1.44,0.459,2.56,1.661,3.358
			c0.289,0.28,0.578,0.561,0.867,0.841c1.454,2.497,4.247,2.965,6.481,4.28l0,0c-1.669,5.602-4.337,10.793-6.639,16.134
			c-2.11,2.772-4.219,5.543-6.329,8.314c-0.026,0.272-0.051,0.544-0.076,0.816c-0.273,0.264-0.547,0.527-0.821,0.791
			c-2.682-0.186-4.066,2.031-5.995,3.238c-2.746-0.839-1.881-3.281-2.065-5.078c-0.731-7.131,1.4-14.076,1.597-21.158
			c2.176-8.975,4.234-17.98,6.572-26.913c1.443-5.515,3.1-11.006,6.571-15.704c3.734-2.004,5.897-0.319,7.263,3.131
			c0.6,1.516,1.116,3.066,1.66,4.605c0.316,0.893,0.526,1.984,1.704,2.002c1.391,0.021,1.795-1.212,1.964-2.236
			c0.667-4.053-0.059-7.818-2.702-11.089c-1.751-3.38-4.49-5.368-8.28-5.874c-1.383-0.872-2.934-0.736-4.396-0.506
			c-6.485,1.017-10.639,5.224-13.993,10.467c-2.481,2.299-3.871,5.354-5.644,8.144c-5.074,5.653-10.374,11.068-16.455,15.663l0,0
			c-3.105,0.201-2.006-2.379-2.285-3.765c-1.527-7.565-6.938-11.749-13.436-10.171h0c-4.833,1.574-7.817,5.928-7.897,11.522
			c-0.078,5.463,3.394,10.514,8.632,12.561h0c0.92,0.963,2.096,0.931,3.286,0.849l0,0l0,0c2.255,0.325,3.356,1.335,2.425,3.769
			c-1.16,3.032-2.22,6.102-3.323,9.156l0,0c-2.888,6.176-6.556,11.875-10.597,17.348c-2.213,2.377-5.084,4.16-6.52,7.237
			c0.067,0.129,0.152,0.223,0.245,0.301c-0.043,0.035-0.09,0.067-0.132,0.103l-0.001,0.001c-0.073-0.125-0.111-0.261-0.112-0.406
			c-1.889-0.328-3.664,2.413-5.623,0.21c-1.452-4.181-1.81-8.481-1.6-12.886c0.688-14.417,0.655-28.9,4.214-43.034
			c2.525-6.027,5.014-12.07,8.463-17.656c1.164-1.886,2.337-3.737,4.569-4.535c2.093,0.38,3.465,1.815,4.811,3.288l0.28-0.213
			c0.006,0.004,0.011,0.009,0.017,0.014c-0.099,0.066-0.198,0.133-0.297,0.2c0.94,2.111,1.867,4.229,2.824,6.332
			c0.527,1.159,1.197,2.301,2.716,1.921c1.44-0.36,1.83-1.675,1.722-2.92c-0.353-4.055-0.579-8.188-3.737-11.331v0l0.065,0.012
			c-1.69-3.002-4.041-5.137-7.55-5.749c-3.738-1.694-7.207-0.714-10.39,1.341c-4.031,2.601-7.312,6.004-9.72,10.196
			c-15.483,19.526-20.592,41.898-17.874,66.286c0.527,4.73,2.184,9.314,5.583,12.975c1.073,2.226,2.723,3.879,4.937,4.972
			c5.974,4.74,12.62,4.792,18.465,0.144c2.207-1.103,3.775-2.839,4.943-4.974l0,0c2.745-2.593,4.902-5.617,6.602-8.978
			c0.913-0.612,1.444-1.472,1.643-2.545l0,0c6.472-9.886,10.337-20.744,12.085-32.393c0.357-0.485,0.714-0.969,1.071-1.454
			c4.711-1.317,7.172-5.484,10.628-8.391c0.912,0.221,0.695,1.072,0.932,1.67c-3.216,8.181-5.28,16.633-5.637,25.431
			c-0.359,8.855,0.816,17.385,6.14,24.862c5.277,8.691,13.353,9.414,20.922,1.874c2.336-1.497,4.262-3.408,5.771-5.738
			c1.486-1.083,2.61-2.451,3.282-4.174c0.932-0.569,1.456-1.414,1.667-2.47c4.119-5.785,6.431-12.339,8.147-19.148
			c1.806-2.166,0.567-5.848,3.666-7.37l0.003-0.001c0.588,0.183,1.067,0.081,1.358-0.517c4.418-0.931,7.916-3.296,10.657-6.841
			c0.773-0.721,1.529-1.462,2.326-2.155c0.427-0.371,0.769-1.35,1.441-0.739c0.37,0.336,0.216,1.249,0.299,1.902
			c-0.467,2.003-0.993,3.995-1.391,6.012c-2.466,12.506-5.713,24.907-5.485,37.795c0.094,5.341,2.172,8.42,5.9,9.223
			c3.554,0.766,6.769-1.025,9.058-5.594c5.763-11.504,7.085-24.069,8.426-36.613c3.568-3.1,4.669-7.587,6.551-11.637
			c1.045-1.174,1.803-2.468,1.713-4.114l0,0c0.244-0.586,0.488-1.171,0.732-1.756c3.061-4.275,5.039-9.143,7.517-13.737
			c1.532-1.738,2.779-3.631,3.256-5.946v0v0c0.489-0.679,1.023-1.341,0.857-2.267c2.055-0.434,2.382-2.435,3.339-3.808
			c3.662-5.254,7.868-9.66,14.705-10.386c4.304,0.904,2.134,4.17,2.391,6.551c-4.408,15.259-10.452,29.946-15.681,44.918
			c-3.124,8.944-5.429,18.177-4.872,27.741c0.388,6.655,1.93,13.07,8.783,16.45c4.862,2.517,8.377,2.093,12.773-1.539
			c2.591-1.531,4.607-3.687,6.497-5.98c0.047,0,0.094-0.032,0.139-0.087c1.352-0.755,2.378-1.842,3.17-3.166
			c1.411-0.788,2.48-1.917,3.293-3.301c1.731-1.369,3.468-2.733,4.146-4.979c0.186-0.147,0.213-0.32,0.082-0.518
			c1.654-1.028,2.532-2.653,3.337-4.335c1.764-0.051,2.206-1.61,3.07-2.688l0,0C1010.158,650.814,1011.537,649.685,1010.781,647.871
			z M902.43,627.238c-0.739-2.298-1.964-4.444-2.289-6.873c0.045-0.124,0.098-0.258,0.148-0.388
			c3.266,1.275,3.698,2.704,2.165,7.279C902.446,627.25,902.438,627.244,902.43,627.238z M905.935,602.268
			c0.036-0.011,0.064-0.027,0.098-0.04c-0.009,0.042-0.012,0.081-0.022,0.122C905.982,602.323,905.963,602.295,905.935,602.268z
			 M847.908,622.778c-1.437-1.488-3.347-2.081-5.247-2.688c0.558-2.178-0.221-4.427,0.253-6.607c1.52,0.974,3.174,1.24,4.979,0.714
			c-0.028,0.025-0.056,0.05-0.084,0.076c-0.517,2.841,0.291,5.664,0.112,8.498L847.908,622.778z M834.032,591.252
			c0.421-0.457,0.899-0.866,1.453-1.176C834.979,590.456,834.494,590.848,834.032,591.252z M839.654,661.845
			c0.085-0.048,0.167-0.097,0.261-0.138c0.004,0.056,0.007,0.111,0.011,0.167C839.834,661.863,839.739,661.848,839.654,661.845z
			 M906.648,637.102c0.019-0.025,0.034-0.051,0.055-0.076l0-0.001v0.001c0,0.037,0,0.073,0,0.11
			C906.685,637.126,906.666,637.112,906.648,637.102z"/>
	</g>
</g>
</svg>
